<svg xmlns="http://www.w3.org/2000/svg" xml:space="preserve" version="1.0" style="shape-rendering:geometricPrecision; text-rendering:geometricPrecision; fill-rule:evenodd; clip-rule:evenodd"
viewBox="0 0 104 104" xmlns:xlink="http://www.w3.org/1999/xlink">
	<g>
		<path class="fil0" d="M0 0l30 0 0 13 -17 0 0 13 -13 0 0 -26zm39 0l26 0 0 13 -26 0 0 -13zm35 0l30 0 0 26 -13 0 0 -13 -17 0 0 -13zm30 38l0 26 -13 0 0 -26 13 0zm0 39l0 26 -30 0 0 -13 17 0 0 -13 13 0zm-39 26l-26 0 0 -13 26 0 0 13zm-35 0l-30 0 0 -26 13 0 0 13 17 0 0 13zm-30 -39l0 -26 13 0 0 26 -13 0zm67 -28l-23 0 23 23 0 -23zm9 -9l-52 0 23 23 -23 23 6 6 23 -23 23 23 0 -52z"/>
	</g>
</svg>
