<svg xmlns="http://www.w3.org/2000/svg" xmlns:xlink="http://www.w3.org/1999/xlink" width="63" height="41" viewBox="0 0 63 41"><defs><path id="e2dja" d="M1282.002 2452.997h2v4l3-4h2.499l-3.5 4.5 3.5 4.5h-2.5l-3-4v4h-2zm12.498 0c2.67-.01 4.517 1.661 4.5 4.5-.016 2.65-1.425 4.52-4.5 4.5-3.216-.02-4.533-2.033-4.5-4.5.033-2.41 1.713-4.488 4.5-4.5zm0 7c1.752 0 2.5-1.025 2.5-2.5 0-1.6-1.087-2.5-2.5-2.5-1.45 0-2.5.9-2.5 2.5 0 1.5.76 2.5 2.5 2.5zm12.999 2l-4.499-5.151v5.15h-2v-8.999h1.5l4.499 5.5v-5.5h2v9zm2.5-9h7.999v2h-3v7h-2v-7h-3zm16.998 5.5c.017 1.764-1.398 3.513-4 3.5-2.51-.012-3.76-1.252-4-3.5v-5.5h2v4.5c.032 1.237.5 2.515 2 2.5 1.616-.015 2.062-1.256 2-2.5v-4.5h2zm2 3.5v-9h3.5c2.387 0 3.499 1.258 3.499 3 0 1.962-1.4 2.412-1.874 2.65l2.874 3.35h-2.5l-2.375-2.963-1.125-.037v3zm2-7v2h2c.472-.017 1.019-.305 1-1-.01-.337-.311-1.016-1-1-.3.007-1.588-.013-2 0zM1274 2437h41v12h-2v-10h-37v37h37v-10h2v12h-41z"/></defs><g><g opacity=".4" transform="translate(-1274 -2437)"><use fill="#f41707" xlink:href="#e2dja"/><use fill="#fff" xlink:href="#e2dja"/></g></g></svg>